<?xml version="1.0" standalone="no"?>
<!DOCTYPE svg PUBLIC "-//W3C//DTD SVG 20010904//EN"
 "http://www.w3.org/TR/2001/REC-SVG-20010904/DTD/svg10.dtd">
<svg version="1.0" xmlns="http://www.w3.org/2000/svg"
 width="381.000000pt" height="381.000000pt" viewBox="0 0 381.000000 381.000000"
 preserveAspectRatio="xMidYMid meet">
<metadata>
Created by potrace 1.11, written by Peter Selinger 2001-2013
</metadata>
<g transform="translate(0.000000,381.000000) scale(0.100000,-0.100000)"
fill="#000000" stroke="none">
<path d="M638 3121 c-119 -60 -187 -173 -176 -293 l3 -38 50 24 c96 45 155
123 175 227 9 49 5 99 -9 99 -3 -1 -23 -9 -43 -19z"/>
<path d="M3117 3120 c-8 -29 2 -98 19 -139 35 -84 92 -140 178 -176 l38 -16
-4 68 c-6 116 -71 214 -172 262 -56 26 -52 26 -59 1z"/>
<path d="M187 2926 c-14 -37 0 -152 26 -202 27 -52 91 -119 131 -134 l23 -8
-21 -84 c-12 -46 -23 -86 -24 -90 -1 -5 -2 -16 -2 -25 -1 -10 -9 3 -19 28 -36
91 -105 157 -195 184 l-46 14 0 -38 c0 -115 84 -226 205 -273 22 -9 40 -21 39
-27 -1 -6 -2 -53 -2 -103 l-2 -93 -27 40 c-15 22 -36 48 -48 58 -40 35 -115
67 -171 73 -57 7 -57 7 -51 -18 32 -126 132 -217 256 -234 49 -6 51 -8 52 -38
2 -38 5 -57 17 -118 l9 -48 -34 30 c-57 50 -112 73 -188 77 -84 5 -104 -4 -87
-41 20 -44 84 -107 136 -133 39 -20 69 -27 126 -29 l75 -3 36 -91 36 -90 -35
22 c-42 26 -124 46 -172 42 -56 -4 -120 -25 -120 -39 0 -24 96 -100 149 -119
49 -17 104 -18 207 -4 17 2 32 -13 72 -72 28 -41 49 -76 47 -78 -2 -2 -14 2
-27 9 -37 20 -166 15 -218 -8 -25 -11 -52 -28 -59 -37 -17 -20 -5 -31 78 -73
74 -37 177 -37 251 -1 l50 25 68 -66 68 -66 -75 0 c-64 -1 -84 -5 -128 -29
-28 -16 -64 -41 -79 -57 l-27 -29 49 -22 c38 -17 66 -22 124 -22 82 1 129 16
188 62 l37 28 80 -53 c73 -48 77 -53 49 -53 -62 0 -127 -32 -187 -91 -31 -32
-57 -62 -57 -67 0 -16 87 -35 138 -29 73 8 146 43 192 93 22 24 44 44 48 44 5
0 37 -11 73 -25 68 -27 227 -70 294 -80 22 -3 79 -8 126 -11 l87 -6 0 26 c0
17 -6 26 -17 27 -199 8 -353 37 -485 90 l-58 24 -2 90 c-1 73 -6 98 -25 135
-28 52 -108 132 -130 128 -38 -8 -38 -158 0 -236 14 -29 25 -52 23 -52 -4 0
-80 45 -103 62 -24 17 -24 17 -7 61 22 58 22 143 1 206 -18 55 -85 138 -102
128 -20 -13 -46 -109 -45 -168 0 -31 8 -74 17 -95 l15 -37 -22 19 c-13 10 -40
36 -61 56 l-38 37 30 53 c57 102 58 200 3 302 l-27 48 -31 -36 c-42 -49 -67
-131 -62 -206 2 -33 2 -57 -1 -54 -3 2 -24 32 -47 67 l-43 62 36 35 c54 52 85
127 86 208 1 67 -17 142 -33 142 -20 0 -83 -66 -106 -113 -14 -27 -29 -77 -32
-111 l-7 -61 -33 84 c-18 46 -32 84 -30 85 2 2 19 12 38 24 88 52 133 135 137
250 2 75 1 82 -16 82 -54 0 -161 -122 -183 -209 l-12 -46 -8 40 c-4 22 -10 60
-14 85 -3 25 -8 48 -10 52 -2 3 19 14 48 24 79 26 159 110 181 190 9 33 17 72
17 87 0 25 -3 27 -27 21 -82 -19 -194 -110 -209 -170 -12 -48 -20 -22 -18 55
2 84 8 103 27 99 22 -4 90 13 127 32 56 29 118 98 140 158 11 29 18 58 14 63
-3 6 -25 8 -51 4 -87 -12 -156 -51 -204 -118 -34 -46 -35 -37 -13 67 l17 75
75 0 c64 0 85 5 138 31 62 30 110 77 135 133 7 15 9 30 5 34 -4 4 -37 7 -74 7
-79 0 -158 -32 -209 -84 -36 -37 -41 -34 -18 10 21 40 38 86 29 77 -4 -4 -20
-35 -35 -70 -23 -50 -28 -57 -29 -34 -1 88 -58 187 -137 238 -53 33 -59 34
-66 15z"/>
<path d="M3569 2920 c-84 -44 -145 -145 -149 -245 0 -26 -5 -21 -35 40 -40 83
-46 82 -9 -1 l26 -59 -44 42 c-29 28 -63 48 -103 61 -52 18 -82 20 -167 13
-21 -1 -16 -20 23 -77 33 -49 106 -100 163 -115 56 -15 146 -13 182 5 96 48
164 150 169 255 4 60 -2 101 -14 101 -3 -1 -22 -9 -42 -20z"/>
<path d="M3681 2588 c-71 -27 -142 -97 -168 -167 l-19 -53 -13 59 c-17 78 -35
133 -42 133 -3 0 4 -38 17 -85 12 -47 18 -85 13 -85 -5 0 -9 4 -9 10 0 19 -63
80 -114 110 -38 21 -69 30 -107 32 -52 3 -54 2 -51 -22 4 -41 41 -106 80 -145
56 -56 116 -82 200 -88 16 -1 22 -8 23 -27 3 -83 4 -160 2 -160 -2 0 -12 19
-24 43 -32 65 -96 124 -157 147 -75 28 -76 28 -68 -35 14 -123 94 -218 219
-259 20 -6 21 -36 4 -121 l-13 -59 -22 60 c-25 70 -81 139 -140 172 -46 26
-50 22 -53 -53 -6 -111 65 -236 157 -277 28 -13 27 -16 -17 -118 l-28 -65 -1
42 c0 23 -9 67 -20 97 -22 57 -92 146 -116 146 -20 0 -42 -86 -39 -152 4 -69
39 -151 85 -195 30 -29 32 -35 22 -58 -7 -14 -17 -31 -22 -38 -6 -7 -21 -26
-33 -43 l-22 -31 -1 81 c0 89 -22 152 -68 195 l-25 24 -31 -64 c-25 -54 -30
-76 -30 -141 0 -42 5 -80 10 -83 6 -3 10 -13 10 -21 0 -8 11 -31 24 -51 29
-42 26 -49 -46 -112 l-45 -40 14 42 c8 23 14 67 14 98 0 58 -28 150 -48 156
-17 6 -60 -45 -90 -105 -31 -64 -35 -163 -8 -230 10 -24 16 -44 14 -45 -79
-52 -120 -77 -123 -77 -3 0 6 23 20 50 14 28 28 74 31 103 6 57 -11 137 -29
137 -23 0 -95 -70 -120 -117 -37 -67 -51 -165 -33 -222 4 -14 -9 -22 -72 -44
-83 -28 -186 -55 -237 -63 -74 -11 -171 -20 -236 -23 -10 -1 -16 -10 -16 -27
l0 -26 95 7 c52 3 97 8 100 10 3 1 26 6 51 9 54 7 192 45 276 76 l61 23 42
-45 c54 -59 126 -91 210 -93 36 -1 77 3 92 9 26 9 27 11 14 37 -34 65 -145
134 -227 141 -15 1 -26 3 -25 4 1 2 37 25 79 53 75 48 77 49 94 30 9 -10 42
-31 73 -46 74 -36 181 -38 255 -5 l49 22 -24 26 c-58 62 -135 93 -224 91 l-64
-2 70 67 c68 66 71 67 94 52 89 -58 240 -48 333 23 39 30 34 40 -36 74 -59 28
-180 32 -229 7 -31 -16 -31 -15 25 69 52 78 58 84 81 76 14 -4 62 -8 106 -8
69 0 87 4 132 29 28 15 66 44 84 62 29 30 31 36 19 48 -21 19 -101 34 -158 30
-26 -3 -72 -17 -102 -32 l-56 -27 35 90 35 90 71 1 c111 1 211 58 256 147 26
50 17 58 -66 56 -77 -2 -128 -22 -189 -72 -45 -38 -49 -39 -42 -17 3 14 12 60
18 103 11 72 14 77 36 77 119 0 245 107 276 234 l7 28 -53 -5 c-91 -9 -162
-49 -213 -122 l-35 -49 -1 92 c-1 51 -2 98 -3 105 0 6 22 21 50 33 64 26 98
52 137 104 43 59 74 179 50 193 -5 3 -32 -4 -62 -15z"/>
<path d="M1138 2409 c-4 -12 -3 -864 1 -879 0 -3 43 -6 94 -6 210 -4 414 -99
611 -288 33 -31 61 -56 63 -56 2 0 34 31 71 68 138 138 278 224 427 263 78 20
213 27 256 14 19 -6 19 3 19 433 0 504 12 453 -105 445 -203 -13 -389 -107
-574 -290 l-94 -93 -76 77 c-198 199 -391 298 -627 320 -46 4 -62 2 -66 -8z"/>
<path d="M1056 1441 c-17 -6 -14 -10 20 -24 23 -9 32 -17 22 -18 -10 -1 -22
-3 -28 -4 -5 -1 -18 -3 -27 -5 -11 -1 -5 -7 17 -15 19 -7 33 -14 30 -15 -3 -1
-13 -3 -23 -5 -11 -2 -21 -5 -23 -8 -3 -2 109 -50 248 -107 139 -57 330 -134
423 -173 94 -38 177 -71 185 -75 8 -3 2 10 -15 28 -26 28 -27 31 -7 21 17 -9
31 -10 55 -2 l31 11 -24 -25 c-13 -14 -19 -25 -14 -25 5 0 199 77 431 172 319
131 417 175 402 180 -12 5 -25 6 -30 2 -5 -3 -9 -3 -9 0 0 3 15 12 33 20 31
14 31 14 7 17 -14 1 -31 2 -37 2 -26 -1 -12 15 25 29 l37 15 -57 8 c-53 7
-185 2 -237 -9 -174 -38 -354 -136 -504 -276 -41 -38 -77 -70 -79 -70 -2 0
-31 25 -64 56 -136 127 -287 219 -444 269 -69 22 -108 28 -205 31 -66 1 -129
-1 -139 -5z m854 -354 c14 0 34 3 45 8 15 6 13 1 -9 -23 -17 -18 -34 -32 -38
-32 -5 0 -23 14 -39 31 -29 30 -29 31 -8 24 13 -4 35 -8 49 -8z"/>
</g>
</svg>
