<?xml version="1.0" standalone="no"?>
<!DOCTYPE svg PUBLIC "-//W3C//DTD SVG 20010904//EN"
 "http://www.w3.org/TR/2001/REC-SVG-20010904/DTD/svg10.dtd">
<svg version="1.0" xmlns="http://www.w3.org/2000/svg"
 width="1588.000000pt" height="1588.000000pt" viewBox="0 0 1588.000000 1588.000000"
 preserveAspectRatio="xMidYMid meet">
<metadata>
Created by potrace 1.11, written by Peter Selinger 2001-2013
</metadata>
<g transform="translate(0.000000,1588.000000) scale(0.100000,-0.100000)"
fill="#000000" stroke="none">
<path d="M2781 13028 c-316 -101 -590 -341 -735 -642 -45 -94 -89 -222 -100
-290 -4 -21 -8 -41 -11 -45 -4 -8 -18 -169 -18 -216 0 -16 3 -71 7 -121 l7
-91 -68 -139 c-38 -76 -88 -184 -112 -239 -24 -55 -52 -119 -62 -142 -11 -24
-19 -47 -19 -51 0 -5 -8 -25 -18 -45 l-18 -37 -1 103 c-5 480 -284 912 -724
1121 -52 25 -97 42 -101 38 -4 -4 -9 -18 -12 -32 -3 -14 -7 -34 -9 -45 -3 -11
-8 -40 -12 -65 -3 -25 -9 -58 -11 -73 -13 -81 -4 -273 18 -367 5 -25 11 -52
13 -61 25 -119 125 -335 207 -443 124 -165 277 -294 449 -379 l97 -48 -25 -77
c-14 -42 -27 -84 -29 -92 -2 -8 -22 -82 -44 -165 -22 -82 -42 -162 -45 -177
-3 -14 -16 -77 -29 -140 -14 -62 -27 -131 -31 -153 -4 -22 -8 -47 -10 -55 -2
-8 -4 -26 -5 -40 -1 -36 -16 -7 -25 50 -30 184 -163 430 -323 596 -126 130
-275 230 -438 294 -103 40 -271 82 -288 72 -10 -6 -1 -213 13 -294 39 -225
142 -443 289 -610 187 -212 393 -335 684 -409 46 -11 47 -13 43 -43 -20 -129
-29 -341 -29 -626 l0 -265 -35 70 c-123 247 -318 443 -566 568 -79 40 -178 78
-240 93 -95 23 -188 35 -287 39 l-118 4 0 -27 c0 -37 36 -175 62 -242 73 -188
173 -337 313 -473 48 -47 169 -140 210 -163 11 -6 45 -24 75 -41 58 -32 200
-89 241 -97 13 -2 31 -7 39 -10 8 -3 31 -7 50 -10 19 -3 46 -8 60 -11 14 -3
68 -8 120 -12 52 -3 96 -7 98 -8 4 -3 5 -15 22 -150 6 -49 13 -101 15 -115 2
-14 7 -45 10 -70 3 -25 10 -67 15 -95 5 -27 12 -63 15 -80 10 -61 31 -153 76
-345 7 -32 7 -33 -6 -15 -181 254 -516 451 -840 493 -102 14 -317 8 -413 -12
-97 -20 -111 -28 -92 -51 7 -8 9 -15 5 -15 -3 0 16 -43 44 -96 173 -329 463
-562 809 -650 122 -31 180 -38 312 -38 96 0 142 3 253 20 27 4 37 2 37 -8 0
-21 128 -372 175 -483 8 -16 43 -95 79 -174 44 -96 59 -139 47 -130 -10 8 -47
35 -82 60 -132 96 -338 182 -514 213 -103 19 -362 14 -461 -7 -130 -29 -334
-106 -334 -126 0 -18 118 -166 181 -228 114 -110 217 -181 361 -247 288 -133
639 -148 938 -41 110 40 109 39 117 19 10 -27 217 -360 233 -374 3 -3 18 -25
35 -50 16 -25 69 -97 116 -161 l87 -116 -51 25 c-97 46 -175 73 -292 98 -131
28 -380 28 -505 0 -113 -26 -215 -63 -313 -112 -86 -43 -236 -142 -237 -156 0
-4 21 -26 46 -50 185 -174 457 -300 699 -326 306 -32 591 33 842 194 l55 35
62 -67 c91 -100 280 -288 381 -379 146 -132 162 -148 140 -140 -58 19 -185 33
-305 33 -347 0 -651 -128 -898 -378 l-94 -94 28 -22 c63 -51 240 -128 372
-163 155 -41 390 -48 542 -16 3 1 19 4 35 8 17 4 39 9 50 11 37 7 149 48 213
78 120 55 239 137 343 235 l56 53 44 -33 c86 -65 366 -246 499 -322 74 -42
138 -80 142 -83 4 -4 -23 -7 -60 -7 -77 -1 -181 -12 -232 -25 -174 -43 -300
-96 -428 -180 -159 -105 -288 -240 -392 -410 l-51 -85 38 -17 c34 -15 146 -46
228 -64 17 -3 98 -8 180 -10 279 -6 511 62 739 215 127 86 279 244 361 375 9
14 20 11 100 -25 237 -106 733 -273 935 -314 8 -2 42 -10 75 -19 68 -17 405
-81 480 -91 60 -7 87 -11 185 -25 41 -5 113 -13 160 -16 47 -3 96 -7 110 -9
14 -3 107 -7 208 -11 l182 -6 0 106 0 106 -57 0 c-135 1 -351 9 -393 14 -25 3
-88 8 -140 11 -52 4 -97 8 -100 10 -3 1 -34 6 -70 9 -77 8 -107 13 -220 31
-47 8 -103 17 -125 20 -22 4 -110 22 -195 42 -85 19 -163 36 -174 39 -10 2
-44 11 -75 20 -31 9 -63 17 -71 19 -8 2 -26 8 -40 13 -14 5 -29 10 -35 11 -50
6 -475 156 -607 215 l-56 25 14 48 c43 140 52 386 20 553 -29 159 -102 336
-195 474 -101 150 -271 305 -433 395 l-56 32 -20 -53 c-47 -127 -65 -236 -66
-398 -1 -179 6 -239 40 -358 46 -158 130 -329 215 -434 16 -21 28 -38 25 -38
-2 0 -33 16 -68 36 -34 20 -79 45 -98 56 -127 72 -414 259 -425 278 -3 5 8 40
25 77 197 423 160 891 -100 1266 -47 68 -149 182 -226 250 l-31 28 -29 -48
c-65 -105 -143 -298 -159 -394 -3 -19 -8 -41 -10 -49 -24 -89 -21 -341 6 -458
6 -26 13 -58 15 -71 8 -41 45 -144 80 -219 18 -39 29 -72 24 -72 -5 0 -10 3
-12 8 -1 4 -37 36 -78 71 -41 36 -155 145 -254 242 l-179 178 43 51 c117 139
228 372 255 535 3 22 10 62 15 90 10 66 11 279 0 335 -5 25 -11 64 -15 88 -17
119 -105 323 -195 457 -72 107 -68 106 -134 33 -118 -130 -223 -317 -271 -483
-40 -138 -50 -223 -49 -387 2 -111 23 -257 50 -346 4 -13 2 -12 -10 3 -9 11
-22 27 -29 35 -60 72 -266 371 -345 502 l-40 67 46 38 c226 181 368 404 442
688 27 107 35 186 33 333 -1 114 -6 151 -35 272 -26 109 -94 280 -112 280 -13
0 -103 -67 -175 -130 -96 -84 -215 -238 -274 -355 -109 -217 -160 -486 -133
-707 5 -38 -2 -28 -54 77 -60 121 -179 410 -224 543 l-25 72 62 31 c296 148
509 391 635 724 20 52 51 197 59 270 12 121 5 305 -13 367 -3 9 -7 27 -9 40
-3 13 -7 35 -10 49 l-6 27 -51 -20 c-351 -133 -656 -487 -744 -865 -21 -91
-21 -89 -29 -163 -4 -36 -8 -66 -10 -68 -3 -3 -61 240 -71 298 -2 14 -9 45
-14 70 -11 55 -46 275 -55 349 -4 30 -8 62 -10 72 -3 14 10 20 67 33 378 85
717 382 867 757 28 71 63 196 75 269 13 76 17 268 6 275 -29 18 -248 -47 -386
-116 -295 -147 -520 -408 -629 -730 l-33 -100 -4 53 c-10 141 3 683 18 758 1
8 3 22 3 30 1 12 13 16 49 16 211 1 436 62 615 165 204 118 379 299 490 509
51 98 111 271 124 355 2 17 6 36 8 43 3 8 -9 12 -38 13 -63 1 -159 -2 -187 -6
-14 -3 -43 -7 -65 -10 -102 -14 -228 -54 -350 -111 -221 -103 -467 -344 -568
-556 -12 -26 -25 -48 -28 -48 -6 0 13 130 36 240 9 41 18 86 20 100 4 26 96
389 115 450 18 60 22 63 69 50 64 -17 145 -25 261 -24 135 0 203 8 320 40 289
77 532 244 702 481 85 119 168 287 151 304 -9 9 -28 13 -148 33 -78 14 -314
15 -380 2 -16 -3 -46 -9 -65 -12 -58 -10 -235 -71 -302 -105 -163 -82 -346
-234 -448 -371 -23 -32 -44 -58 -45 -58 -5 0 65 174 114 283 17 38 31 70 31
73 0 2 31 68 68 147 l68 142 50 13 c65 17 205 78 277 119 318 186 553 537 604
903 11 76 9 368 -3 379 -5 6 -46 -2 -103 -21z"/>
<path d="M12998 13053 c-13 -26 -17 -271 -6 -358 34 -277 161 -532 367 -735
143 -141 299 -238 481 -298 l85 -29 37 -74 c80 -160 262 -589 239 -563 -4 5
-28 36 -53 69 -195 258 -513 438 -847 479 -65 8 -230 9 -287 1 -96 -13 -204
-39 -204 -49 0 -6 22 -56 49 -111 167 -345 485 -597 858 -679 163 -36 376 -39
517 -6 73 17 70 20 107 -115 58 -213 87 -332 105 -435 4 -22 9 -46 29 -150 7
-33 14 -77 21 -120 5 -30 0 -26 -33 35 -96 174 -193 291 -338 407 -222 176
-476 265 -779 272 l-88 2 6 -51 c9 -77 63 -240 113 -340 207 -412 626 -682
1078 -694 44 -1 82 -7 86 -12 3 -6 7 -31 8 -57 1 -26 4 -69 7 -97 13 -147 8
-777 -6 -682 -4 28 -4 29 -30 107 -65 200 -214 415 -390 562 -154 128 -378
233 -565 264 -16 3 -35 7 -42 9 -6 2 -14 -8 -17 -23 -6 -28 0 -198 9 -242 2
-13 7 -41 10 -62 6 -38 44 -170 64 -222 87 -222 269 -447 472 -582 120 -80
303 -161 402 -178 55 -9 66 -16 62 -39 -2 -12 -6 -44 -10 -72 -3 -27 -10 -75
-15 -105 -5 -30 -12 -73 -15 -95 -11 -74 -15 -100 -46 -250 -17 -82 -33 -154
-36 -158 -3 -5 -7 -22 -10 -39 -2 -17 -8 -40 -13 -52 -7 -18 -9 -16 -10 14 -1
19 -3 44 -5 55 -2 11 -7 40 -10 64 -3 25 -8 47 -10 51 -2 4 -6 19 -9 34 -10
56 -56 184 -94 261 -133 272 -371 492 -656 609 -22 9 -40 15 -41 14 -3 -5 -25
-93 -30 -123 -53 -313 11 -637 180 -901 116 -182 295 -344 485 -439 41 -21 76
-39 78 -40 5 -4 -114 -327 -148 -400 -5 -11 -31 -69 -58 -130 -27 -60 -61
-132 -75 -160 l-26 -50 6 45 c14 127 4 285 -29 420 -53 221 -154 410 -307 572
-74 79 -221 198 -245 198 -7 0 -23 -24 -35 -52 -86 -198 -121 -371 -115 -576
12 -358 178 -695 460 -928 l62 -51 -31 -54 c-77 -135 -385 -574 -395 -564 -2
2 4 27 13 57 16 55 19 69 34 178 9 62 7 284 -2 325 -3 11 -8 40 -12 65 -12 75
-65 230 -107 315 -80 160 -229 352 -262 339 -13 -6 -101 -136 -143 -214 -48
-89 -92 -218 -118 -341 -19 -95 -23 -139 -21 -264 3 -160 19 -256 62 -385 37
-109 117 -258 191 -356 l64 -86 -173 -171 c-160 -159 -274 -264 -344 -320
l-29 -22 21 30 c37 55 96 218 118 328 49 238 37 444 -39 672 -27 80 -119 267
-140 285 -25 20 -217 -184 -306 -325 -176 -279 -230 -665 -139 -991 25 -88 62
-182 93 -239 23 -40 24 -45 8 -58 -43 -38 -325 -217 -466 -298 -22 -12 -59
-33 -83 -47 l-43 -24 54 75 c113 157 198 365 224 547 4 30 8 127 7 215 0 140
-4 173 -28 268 -15 59 -34 123 -42 142 l-14 35 -43 -21 c-42 -22 -148 -88
-157 -99 -3 -3 -16 -13 -29 -22 -44 -31 -152 -140 -211 -214 -235 -295 -325
-731 -227 -1092 l14 -52 -46 -21 c-209 -92 -583 -216 -891 -294 -3 0 -23 -5
-45 -10 -22 -4 -44 -9 -50 -11 -28 -6 -214 -44 -240 -48 -16 -3 -70 -12 -120
-20 -98 -16 -138 -22 -230 -32 -33 -3 -68 -8 -77 -10 -10 -1 -53 -5 -95 -8
-43 -3 -116 -9 -163 -12 -47 -3 -141 -7 -210 -9 -69 -2 -139 -3 -157 -4 l-31
-1 0 -104 1 -105 131 5 c152 5 282 12 346 18 25 3 72 8 105 11 33 3 96 10 140
16 44 6 89 12 100 14 187 23 579 107 780 166 215 64 510 166 620 214 196 87
199 88 213 68 161 -228 298 -351 507 -456 179 -90 340 -129 545 -131 132 -1
169 2 280 24 57 11 210 59 210 66 0 2 -20 38 -45 79 -125 213 -302 379 -520
488 -91 46 -211 91 -274 102 -19 3 -37 8 -41 10 -14 9 -151 22 -245 24 l-50 1
102 58 c56 31 128 72 160 91 68 39 386 250 393 261 3 4 15 12 27 19 20 10 28
6 75 -40 229 -222 549 -352 868 -351 158 1 277 20 425 70 61 20 260 119 274
136 23 28 -195 230 -344 318 -258 153 -576 207 -883 148 -30 -5 -59 -12 -65
-16 -14 -7 32 37 171 165 121 111 259 248 350 348 36 40 69 73 72 73 3 0 30
-16 60 -36 114 -73 309 -154 412 -169 23 -4 45 -8 49 -10 3 -2 34 -7 70 -11
368 -40 743 81 997 322 55 52 56 54 37 69 -11 9 -29 23 -40 33 -26 22 -103 72
-111 72 -3 0 -18 8 -32 18 -48 33 -194 90 -297 116 -284 71 -565 45 -833 -75
-34 -15 -59 -22 -55 -16 5 7 41 56 81 109 93 125 269 388 334 500 28 49 56 88
63 88 6 0 38 -11 71 -24 68 -28 203 -62 285 -71 381 -46 752 77 1028 340 80
77 194 221 188 239 -8 25 -236 112 -321 122 -22 3 -42 7 -46 9 -9 6 -142 18
-200 18 -63 1 -212 -11 -232 -18 -7 -2 -29 -6 -48 -9 -58 -9 -221 -66 -295
-104 -87 -45 -134 -74 -209 -131 -34 -26 -54 -36 -48 -25 69 130 219 495 284
689 39 120 35 114 76 104 126 -29 308 -30 467 -4 52 9 202 52 240 69 117 53
160 76 235 125 110 73 271 233 343 342 51 77 137 245 137 268 0 7 -101 30
-205 46 -53 8 -220 8 -281 0 -206 -27 -390 -94 -554 -202 -103 -68 -180 -138
-299 -273 l-31 -35 15 43 c8 23 12 42 10 42 -2 0 1 15 6 33 5 17 18 75 29 128
31 147 30 142 45 239 4 25 9 54 11 65 2 11 7 40 10 65 3 25 7 56 10 70 3 23 9
70 18 158 2 18 5 35 7 37 2 2 36 6 74 9 124 10 189 17 195 21 4 2 20 7 37 9
97 18 288 95 388 159 240 152 427 383 518 642 25 70 53 177 59 225 l3 25 -105
1 c-448 4 -882 -262 -1095 -671 -26 -49 -48 -91 -49 -92 0 -1 -1 121 -1 270 0
272 -10 498 -29 627 -3 21 1 26 18 28 46 3 205 55 283 92 81 38 202 111 258
157 104 85 243 244 295 338 71 126 132 274 146 355 25 139 31 189 33 278 l2
103 -43 -6 c-98 -14 -243 -62 -353 -117 -334 -168 -590 -500 -666 -863 l-12
-60 -18 100 c-10 55 -21 116 -24 135 -4 19 -11 55 -17 80 -5 25 -11 52 -13 60
-27 130 -129 499 -146 532 -8 15 3 24 69 56 89 45 176 98 242 150 121 96 267
278 340 422 32 63 94 236 104 290 3 19 8 46 11 60 26 131 22 324 -12 483 -18
89 -10 87 -128 31 -71 -33 -198 -112 -251 -155 -56 -46 -170 -165 -215 -224
-160 -212 -248 -473 -251 -746 l-1 -100 -34 83 c-60 146 -124 289 -195 435
l-70 143 8 72 c22 217 -9 432 -93 627 -145 340 -434 603 -777 707 -91 28 -84
26 -88 17z"/>
<path d="M4758 10052 c-17 -3 -18 -100 -18 -1863 l0 -1860 68 7 c134 14 511 7
612 -11 8 -1 40 -6 70 -9 59 -8 220 -39 310 -61 327 -79 687 -231 1005 -424
105 -64 325 -212 380 -255 11 -9 49 -39 85 -67 79 -62 88 -69 170 -139 116
-99 153 -133 334 -314 l180 -178 34 38 c209 238 358 387 572 574 14 12 45 39
70 59 25 20 47 38 50 41 21 23 199 153 310 227 471 312 933 486 1438 541 37 4
157 7 267 7 197 0 285 -6 427 -29 24 -4 37 -2 40 7 9 32 1 3628 -9 3638 -19
19 -461 14 -584 -6 -13 -2 -46 -6 -74 -10 -27 -3 -81 -12 -120 -20 -38 -8 -82
-16 -96 -19 -15 -2 -78 -18 -140 -35 -467 -124 -940 -373 -1379 -725 -41 -33
-80 -65 -86 -71 -6 -5 -35 -30 -64 -55 -151 -128 -415 -392 -570 -570 -97
-112 -88 -105 -108 -81 -109 130 -460 489 -573 586 -19 17 -64 55 -99 86 -36
31 -112 92 -170 137 -58 45 -109 86 -115 90 -5 4 -57 41 -115 82 -214 150
-496 307 -715 400 -55 23 -109 46 -120 51 -149 65 -517 167 -666 185 -30 3
-56 8 -59 9 -3 2 -33 6 -65 10 -33 4 -71 9 -85 11 -14 3 -97 7 -185 10 -88 3
-167 6 -175 8 -8 1 -23 0 -32 -2z"/>
<path d="M4748 6015 c-2 -1 -50 -5 -108 -9 -58 -3 -114 -8 -125 -10 -11 -2
-51 -7 -89 -11 -37 -3 -78 -10 -90 -15 -20 -8 -20 -8 6 -19 75 -29 257 -104
285 -116 17 -8 36 -15 41 -15 18 0 21 -16 4 -16 -36 -2 -188 -15 -207 -18 -53
-10 -131 -20 -140 -18 -36 8 46 -34 144 -73 129 -52 150 -65 106 -65 -67 -1
-245 -29 -245 -39 0 -4 48 -26 108 -50 160 -65 324 -132 347 -141 26 -12 209
-87 475 -195 118 -48 312 -127 430 -175 275 -113 478 -196 1150 -470 300 -122
559 -228 575 -235 44 -19 501 -204 522 -211 10 -4 -43 55 -117 130 -120 122
-131 136 -95 121 146 -61 209 -85 213 -80 3 2 -70 78 -161 168 l-166 164 166
-68 c91 -38 168 -68 169 -66 4 4 -299 303 -401 396 -135 123 -481 392 -586
456 -9 6 -50 32 -90 59 -469 312 -1093 545 -1604 600 -27 3 -76 8 -107 12 -55
6 -405 14 -410 9z"/>
<path d="M10888 6015 c-2 -1 -50 -5 -108 -9 -107 -7 -144 -11 -215 -21 -22 -4
-52 -8 -67 -11 -391 -59 -845 -222 -1230 -440 -342 -194 -639 -411 -962 -704
-89 -80 -346 -333 -346 -341 0 -7 240 86 305 118 17 8 -39 -54 -130 -144 -88
-87 -166 -167 -174 -176 -9 -11 34 2 120 38 73 30 134 55 134 55 1 0 -56 -59
-128 -130 -71 -72 -128 -133 -125 -135 2 -3 40 10 84 29 43 18 149 62 234 96
164 67 545 222 720 294 58 24 362 148 675 275 314 128 584 238 600 246 17 7
149 61 295 120 146 59 279 113 295 120 17 7 104 43 195 80 91 37 179 73 195
80 17 7 92 38 169 69 154 63 180 75 156 76 -8 0 -44 5 -80 10 -36 5 -96 12
-135 16 -38 3 -71 7 -73 9 -1 1 19 10 45 20 27 10 72 28 101 41 29 13 56 24
60 24 9 0 92 39 92 43 0 2 -12 4 -27 5 -16 1 -39 4 -53 7 -32 7 -215 27 -257
28 -18 1 -33 2 -33 4 0 1 18 12 40 23 22 11 40 18 40 14 0 -4 6 -2 13 3 6 5
72 34 145 63 72 28 132 53 132 55 0 5 -151 26 -290 40 -62 7 -406 15 -412 10z"/>
</g>
</svg>
