<?xml version="1.0" standalone="no"?>
<!DOCTYPE svg PUBLIC "-//W3C//DTD SVG 20010904//EN"
 "http://www.w3.org/TR/2001/REC-SVG-20010904/DTD/svg10.dtd">
<svg version="1.0" xmlns="http://www.w3.org/2000/svg"
 width="1584.000000pt" height="1584.000000pt" viewBox="0 0 1584.000000 1584.000000"
 preserveAspectRatio="xMidYMid meet">
<metadata>
Created by potrace 1.11, written by Peter Selinger 2001-2013
</metadata>
<g transform="translate(0.000000,1584.000000) scale(0.100000,-0.100000)"
fill="#000000" stroke="none">
<path d="M12992 13002 c-15 -35 -7 -315 12 -402 74 -358 280 -649 591 -836 47
-29 172 -84 260 -115 35 -13 44 -24 77 -89 88 -177 176 -380 264 -614 21 -55
11 -55 -21 0 -15 25 -52 76 -82 113 -205 247 -486 400 -818 446 -39 6 -244 6
-271 1 -12 -2 -44 -7 -73 -11 -29 -4 -68 -12 -86 -18 l-34 -12 50 -100 c213
-423 639 -689 1104 -688 94 0 182 8 255 24 28 6 53 9 56 6 12 -12 130 -456
148 -562 3 -16 11 -57 17 -90 7 -33 13 -67 14 -75 1 -8 5 -31 9 -50 9 -52 15
-88 21 -139 6 -51 9 -55 -44 59 -136 294 -413 537 -733 644 -26 9 -60 18 -75
21 -16 2 -43 9 -61 14 -18 5 -33 10 -35 9 -1 0 -31 3 -67 7 -101 10 -188 13
-200 5 -8 -5 -6 -31 9 -94 91 -381 365 -703 725 -851 145 -59 247 -83 401 -91
55 -4 103 -9 107 -13 19 -17 32 -243 32 -551 0 -263 -4 -383 -12 -375 -3 3
-15 42 -27 87 -22 87 -88 252 -111 279 -8 8 -14 18 -14 22 0 20 -116 171 -185
241 -99 100 -192 170 -304 230 -100 52 -276 113 -341 118 l-45 3 1 -75 c2
-326 131 -628 369 -864 167 -166 408 -296 615 -331 9 -1 14 -12 14 -26 -4 -56
-14 -148 -23 -199 -6 -30 -13 -75 -16 -100 -18 -123 -123 -596 -131 -587 -1 1
-4 47 -7 102 -23 433 -295 833 -698 1030 -40 19 -78 34 -85 31 -10 -4 -25 -64
-40 -166 -11 -81 -6 -265 11 -356 47 -261 161 -480 345 -665 95 -95 215 -183
323 -235 31 -16 57 -35 57 -43 0 -22 -103 -296 -168 -446 -53 -123 -179 -380
-168 -342 9 30 19 158 18 236 -4 319 -134 630 -361 858 -53 54 -193 163 -202
158 -14 -9 -69 -154 -94 -246 -50 -189 -52 -406 -5 -604 22 -92 88 -262 125
-317 14 -21 25 -40 25 -43 0 -3 24 -38 53 -78 59 -79 143 -168 225 -237 l53
-45 -31 -45 c-17 -25 -35 -54 -41 -65 -10 -22 -31 -57 -39 -65 -3 -3 -36 -52
-74 -110 -99 -150 -296 -415 -296 -398 0 2 9 30 20 62 37 103 58 259 54 396
-2 69 -5 136 -7 150 -3 14 -8 45 -11 70 -11 70 -71 243 -111 317 -66 124 -103
178 -195 283 l-30 35 -28 -32 c-104 -120 -212 -378 -240 -568 -9 -65 -9 -297
0 -355 37 -233 125 -433 266 -607 l34 -42 -35 -43 c-75 -91 -487 -479 -545
-512 -8 -5 -3 9 10 30 144 232 199 596 133 879 -29 122 -102 302 -154 379
l-20 30 -94 -95 c-103 -104 -162 -184 -224 -304 -177 -344 -183 -763 -16
-1103 20 -40 34 -74 32 -76 -96 -78 -643 -416 -654 -404 -2 2 24 39 56 82 64
86 69 93 123 203 35 71 84 205 93 253 2 14 9 41 14 60 17 57 20 334 5 425 -14
85 -53 225 -66 238 -27 29 -314 -196 -405 -318 -17 -22 -33 -42 -36 -45 -11
-10 -97 -156 -117 -201 -53 -116 -87 -227 -107 -354 -20 -121 -9 -339 24 -475
6 -25 11 -50 11 -56 0 -12 -218 -102 -424 -174 -318 -112 -830 -233 -1116
-265 -30 -3 -71 -8 -90 -10 -145 -20 -375 -36 -555 -40 -66 -2 -134 -3 -151
-4 l-31 -1 0 -104 -1 -105 137 4 c138 4 291 13 346 20 17 2 62 7 100 10 39 3
97 10 130 15 33 5 83 12 110 15 28 4 64 8 80 10 27 4 85 15 155 30 13 2 42 7
65 10 40 6 287 63 350 81 6 2 19 5 30 7 200 46 617 195 931 333 6 3 26 -19 45
-48 42 -66 75 -104 164 -193 81 -80 90 -87 173 -144 116 -78 326 -166 447
-186 134 -23 340 -27 430 -10 17 3 44 8 60 11 50 9 195 54 195 61 0 3 -17 33
-37 67 -152 253 -384 442 -658 536 -121 42 -219 61 -356 68 l-124 7 109 60
c199 109 315 182 522 327 62 43 115 78 118 78 3 0 25 -19 49 -43 82 -80 157
-136 267 -199 94 -54 278 -118 381 -133 24 -3 58 -9 74 -12 37 -6 261 -5 295
2 13 2 42 7 65 11 121 18 333 98 429 163 l29 19 -59 62 c-187 197 -405 318
-667 370 -161 32 -374 30 -504 -4 -29 -8 -53 -12 -53 -10 0 3 -10 0 -22 -6
-25 -12 -20 -8 102 99 138 121 379 358 490 483 l41 47 52 -33 c112 -71 316
-158 407 -172 35 -6 90 -15 120 -21 40 -8 240 -7 295 1 28 4 64 9 80 11 119
16 356 113 470 194 89 63 174 134 174 148 1 17 -137 107 -233 152 -179 85
-351 124 -537 124 -206 -1 -403 -48 -568 -137 -61 -32 -60 -31 24 79 130 169
367 526 424 638 17 32 20 32 69 11 208 -89 493 -112 732 -58 238 54 429 160
605 338 55 56 115 123 133 149 l33 47 -48 21 c-63 28 -174 67 -204 72 -13 3
-42 10 -64 15 -114 30 -331 33 -466 7 -13 -3 -40 -8 -59 -11 -155 -29 -390
-148 -525 -264 -25 -22 -47 -40 -49 -40 -1 0 16 37 39 82 91 183 200 448 276
671 l44 129 55 -7 c30 -4 63 -9 75 -11 43 -10 254 -6 330 6 176 27 361 100
515 203 100 66 262 232 331 337 63 96 122 217 116 234 -4 11 -33 18 -177 42
-48 8 -215 8 -270 0 -210 -31 -398 -97 -533 -190 -21 -14 -40 -26 -43 -26 -26
0 -239 -210 -286 -282 -17 -27 -33 -47 -34 -45 -2 2 8 47 21 101 35 137 71
307 85 401 7 44 13 87 15 95 1 8 6 37 9 63 4 27 9 56 11 65 1 10 6 49 10 87 7
77 16 139 19 143 2 1 38 4 82 7 99 6 142 12 224 31 426 97 784 432 904 848 15
49 29 107 33 129 l6 40 -119 -6 c-322 -15 -593 -136 -824 -367 -121 -121 -208
-253 -276 -418 -6 -14 -9 91 -9 300 0 178 -4 361 -8 408 -16 174 -20 226 -21
249 -1 22 5 26 59 38 262 60 520 225 691 443 127 162 200 328 250 570 2 14 7
78 11 142 l5 117 -38 -6 c-64 -9 -224 -62 -304 -100 -121 -58 -238 -141 -341
-243 -193 -192 -309 -421 -354 -704 -8 -49 -11 -44 -19 29 -4 33 -11 76 -16
95 -5 19 -12 55 -15 80 -3 25 -13 73 -20 106 -15 66 -21 91 -30 139 -7 37 -22
98 -35 145 -37 133 -55 197 -82 283 -16 54 -28 100 -26 101 1 2 33 17 70 34
56 27 158 86 193 114 202 158 315 304 418 538 25 59 63 190 72 255 4 22 8 51
11 65 18 106 -7 420 -37 454 -11 13 -179 -71 -265 -132 -287 -204 -479 -524
-520 -867 -9 -74 -8 -270 1 -284 3 -6 2 -11 -2 -11 -5 0 -19 28 -30 63 -34 99
-148 358 -234 531 -65 131 -78 166 -73 191 8 47 9 189 0 275 -18 184 -91 388
-197 549 -53 82 -76 109 -170 203 -133 131 -279 222 -467 288 -76 27 -83 28
-90 12z"/>
<path d="M2738 12980 c-538 -199 -871 -726 -814 -1284 5 -56 4 -60 -77 -224
-99 -201 -128 -266 -197 -442 -30 -74 -56 -138 -60 -143 -3 -4 -3 17 0 47 9
80 -1 288 -15 329 -2 6 -7 23 -9 37 -41 207 -159 426 -325 604 -71 74 -219
181 -331 238 -117 58 -113 60 -130 -47 -6 -38 -14 -81 -16 -95 -6 -37 -5 -218
1 -270 43 -335 212 -636 470 -834 90 -70 118 -88 223 -141 72 -36 73 -38 66
-68 -3 -17 -10 -38 -14 -47 -11 -21 -88 -291 -105 -368 -5 -20 -45 -198 -51
-227 -3 -11 -9 -45 -14 -75 -6 -30 -12 -66 -15 -80 -3 -14 -11 -58 -17 -97 -6
-40 -13 -72 -14 -70 -1 1 -14 56 -29 122 -83 369 -322 671 -665 839 -107 51
-274 106 -328 106 -22 0 -23 -3 -21 -78 2 -70 12 -165 23 -217 30 -136 63
-230 119 -340 168 -324 476 -556 849 -639 27 -6 28 -7 22 -69 -3 -34 -7 -72
-9 -85 -12 -73 -20 -285 -19 -553 l0 -307 -24 60 c-56 139 -150 276 -269 395
-225 223 -501 343 -823 358 -125 6 -119 11 -96 -85 113 -465 466 -819 925
-926 85 -20 98 -22 211 -30 52 -3 96 -7 97 -8 1 -1 4 -24 8 -51 7 -62 18 -156
29 -235 4 -33 22 -147 31 -200 4 -20 45 -214 60 -280 2 -8 13 -52 24 -97 12
-45 21 -85 21 -89 0 -4 -23 24 -52 62 -162 213 -403 372 -675 444 -110 29
-168 35 -328 34 -139 0 -295 -24 -295 -44 0 -18 54 -126 103 -205 176 -288
470 -489 817 -560 125 -26 347 -26 476 1 l30 6 43 -129 c73 -217 195 -512 288
-697 l35 -70 -51 46 c-136 123 -341 225 -536 269 -27 6 -59 13 -70 16 -48 13
-333 10 -410 -3 -132 -24 -345 -100 -345 -123 0 -17 88 -126 159 -197 227
-227 531 -355 851 -358 191 -1 307 18 457 75 42 16 77 28 78 27 1 -2 33 -55
70 -118 94 -157 224 -350 336 -500 52 -68 98 -131 102 -138 5 -7 -19 1 -53 18
-164 83 -324 121 -525 126 -148 3 -207 -2 -330 -31 -54 -13 -179 -57 -230 -83
-81 -39 -209 -119 -230 -142 -19 -21 -19 -22 -1 -35 10 -8 35 -29 55 -47 133
-121 328 -218 535 -265 117 -27 307 -36 429 -20 153 19 326 79 469 164 50 29
92 53 95 53 3 0 44 -41 92 -92 163 -174 381 -384 501 -483 66 -54 67 -55 26
-44 -170 47 -450 49 -617 5 -155 -41 -284 -98 -402 -178 -77 -52 -114 -84
-200 -172 -80 -81 -82 -72 43 -136 472 -238 1040 -157 1417 203 l62 59 83 -59
c107 -77 277 -190 352 -234 32 -19 70 -41 85 -50 34 -21 91 -53 169 -96 34
-19 62 -36 62 -36 0 -1 -51 -3 -113 -3 -154 -2 -321 -38 -447 -96 -24 -11 -54
-24 -66 -28 -30 -12 -150 -86 -204 -127 -109 -82 -238 -229 -319 -362 -37 -61
-37 -62 45 -86 125 -38 228 -53 364 -53 195 0 364 37 535 118 73 35 203 113
215 129 3 4 15 14 27 22 67 46 192 181 254 275 l34 52 40 -18 c435 -197 1097
-393 1500 -446 28 -3 59 -8 69 -10 19 -4 149 -21 216 -29 19 -2 76 -7 125 -11
50 -3 98 -8 109 -10 10 -2 101 -6 202 -9 l184 -6 0 105 0 106 -62 0 c-114 1
-332 8 -388 14 -30 3 -89 8 -130 11 -41 3 -88 7 -105 10 -16 2 -56 7 -87 10
-31 3 -65 7 -75 9 -10 2 -40 7 -66 10 -27 4 -56 9 -65 11 -10 1 -51 8 -92 15
-41 7 -102 18 -135 26 -33 7 -71 15 -85 18 -14 3 -34 7 -45 10 -108 24 -169
40 -248 62 -50 14 -99 27 -107 29 -23 5 -272 85 -295 94 -11 5 -96 39 -190 75
-93 37 -176 70 -184 75 -12 8 -11 19 3 77 9 38 20 98 25 134 9 64 7 285 -2
326 -3 12 -8 39 -11 60 -29 181 -134 406 -260 559 -91 109 -246 239 -347 290
l-47 24 -15 -42 c-18 -49 -37 -120 -44 -162 -2 -16 -8 -48 -13 -70 -10 -43 -7
-312 4 -357 3 -16 8 -38 10 -50 32 -176 112 -355 226 -506 l69 -92 -67 37
c-205 113 -602 364 -602 380 0 2 14 31 30 64 35 68 87 217 96 275 3 21 8 42
10 45 9 16 18 154 17 255 -5 313 -129 607 -353 837 -48 49 -93 88 -100 85 -38
-12 -156 -285 -175 -405 -3 -19 -7 -38 -9 -42 -7 -10 -19 -162 -18 -221 3
-210 64 -448 153 -592 16 -27 26 -48 23 -48 -6 0 -64 49 -184 155 -69 61 -376
367 -389 388 -10 15 -7 24 18 52 113 129 214 339 257 537 34 153 26 418 -17
569 -7 24 -13 49 -15 54 -16 76 -120 280 -192 374 l-26 35 -52 -58 c-202 -222
-316 -533 -309 -840 4 -147 18 -233 60 -371 13 -45 13 -48 -1 -30 -8 11 -22
29 -32 40 -68 81 -240 326 -357 510 l-75 120 32 25 c71 54 208 199 262 277
149 214 225 469 220 735 0 52 -4 116 -8 144 -19 132 -104 384 -130 384 -31 0
-212 -162 -279 -250 -23 -30 -44 -57 -47 -60 -7 -6 -39 -56 -62 -95 -58 -99
-129 -283 -142 -369 -4 -21 -8 -41 -10 -45 -6 -9 -19 -148 -19 -201 0 -52 12
-204 19 -228 2 -9 -29 51 -70 133 -101 202 -282 657 -265 667 2 2 38 20 79 42
312 161 539 452 630 806 38 150 44 360 15 510 -3 14 -8 40 -11 58 -7 36 -19
48 -37 35 -7 -6 -28 -16 -47 -23 -52 -20 -177 -97 -247 -152 -238 -185 -413
-478 -459 -772 -11 -72 -13 -91 -13 -150 -1 -33 -3 -57 -6 -55 -13 13 -109
442 -129 574 -8 57 -18 120 -22 139 -2 10 -6 44 -9 75 -3 31 -8 68 -11 82 -5
24 -1 27 32 34 73 13 220 67 304 111 288 153 507 408 605 709 14 43 27 89 29
102 3 13 7 31 10 41 10 32 17 97 21 205 l4 107 -32 -5 c-385 -67 -735 -338
-902 -700 -36 -79 -72 -188 -81 -245 -18 -115 -27 -5 -28 335 0 175 9 419 19
495 2 14 4 34 4 45 1 18 8 21 49 21 87 0 212 15 282 34 25 7 52 13 60 15 31 6
147 53 210 85 116 58 213 131 316 235 168 169 267 344 324 570 11 44 20 86 20
93 0 21 -211 13 -315 -12 -5 -2 -28 -6 -49 -11 -66 -13 -231 -80 -308 -124
-233 -133 -420 -339 -523 -577 -18 -41 -36 -78 -40 -82 -5 -4 -5 -2 -2 4 3 6
13 57 22 115 21 135 69 377 101 504 25 102 94 347 99 353 2 2 20 -1 41 -7 95
-24 332 -35 419 -20 22 4 60 10 85 14 24 4 52 11 62 16 10 5 18 7 18 5 0 -3
33 6 73 20 330 119 560 318 713 619 l56 110 -73 19 c-95 23 -369 28 -474 7
-162 -32 -338 -105 -480 -199 -94 -62 -259 -229 -323 -325 -29 -43 -52 -75
-52 -70 0 8 52 150 69 188 5 11 21 49 35 85 29 77 128 296 179 395 34 70 36
71 94 89 425 133 746 506 838 976 9 44 14 293 8 343 -6 45 -12 46 -115 7z"/>
<path d="M10797 11024 c-1 -1 -32 -5 -69 -8 -37 -4 -75 -8 -85 -10 -10 -2 -38
-7 -63 -10 -159 -22 -408 -87 -610 -160 -102 -36 -127 -46 -208 -82 -29 -13
-55 -24 -58 -24 -13 0 -317 -153 -399 -201 -49 -29 -99 -57 -110 -63 -62 -35
-327 -216 -345 -236 -3 -3 -23 -18 -45 -34 -220 -162 -583 -509 -805 -770 -41
-47 -76 -86 -79 -85 -3 0 -30 29 -60 65 -160 193 -506 530 -710 694 -24 19
-58 47 -75 61 -92 77 -378 276 -511 354 -205 121 -498 258 -705 328 -147 50
-369 109 -465 123 -16 3 -52 9 -80 14 -51 9 -115 19 -170 26 -16 1 -119 6
-227 10 l-197 7 -1 -2080 0 -2080 68 6 c98 8 423 7 522 -2 464 -42 936 -197
1381 -453 377 -216 668 -444 1038 -811 107 -107 197 -190 201 -186 118 146
474 506 625 631 330 275 621 461 950 607 100 44 327 127 385 140 8 2 51 12 95
23 165 42 269 59 465 78 160 15 426 4 612 -25 26 -5 50 -6 53 -3 2 3 5 938 5
2078 0 1974 -1 2074 -17 2076 -27 2 -303 4 -306 2z"/>
<path d="M4697 6563 c-1 -1 -40 -4 -87 -7 -75 -6 -228 -23 -270 -31 -8 -2 -23
-4 -33 -4 -30 -1 -11 -18 43 -37 54 -20 64 -33 25 -35 -14 -1 -29 -3 -35 -4
-5 -1 -22 -3 -37 -4 -29 -2 -32 0 97 -58 l25 -12 -25 -1 c-14 -1 -34 -3 -45
-6 -11 -2 -30 -5 -42 -6 -14 -1 -19 -6 -14 -11 9 -9 115 -56 136 -60 6 -2 57
-22 115 -46 58 -24 155 -64 215 -88 61 -25 124 -51 140 -58 17 -7 113 -47 215
-88 102 -41 336 -137 520 -212 184 -75 385 -157 445 -181 61 -25 119 -49 130
-54 18 -9 1045 -427 1365 -557 74 -30 149 -60 165 -68 59 -26 170 -68 180 -68
5 0 291 115 635 256 344 140 688 281 765 312 77 31 159 65 182 76 24 10 46 19
49 19 4 0 32 11 63 24 31 14 180 75 331 137 151 61 289 117 305 124 30 13 192
79 820 334 193 78 359 146 370 151 11 5 41 18 68 29 26 11 47 21 47 23 0 2
-10 5 -22 6 -13 1 -43 5 -68 10 l-45 8 60 23 c33 13 64 28 69 32 4 4 -23 11
-60 15 l-69 7 70 33 c54 25 64 33 45 35 -28 2 -47 4 -102 13 -125 20 -278 30
-448 29 -125 0 -291 -8 -367 -19 -183 -24 -295 -45 -448 -84 -626 -159 -1224
-491 -1819 -1010 -133 -116 -431 -409 -423 -416 2 -2 25 4 51 15 25 11 46 19
46 16 0 -2 -24 -29 -53 -59 l-53 -56 -59 60 c-33 33 -57 60 -53 60 3 0 28 -9
54 -20 26 -11 48 -19 50 -17 4 4 -282 286 -371 367 -96 87 -241 208 -360 298
-66 51 -125 96 -132 102 -30 25 -309 204 -398 255 -242 140 -524 266 -770 344
-126 40 -348 98 -408 106 -18 3 -43 7 -57 10 -46 10 -234 34 -325 41 -82 6
-393 12 -398 7z m3174 -1597 l54 -24 48 25 c27 13 52 23 57 21 4 -2 -17 -29
-48 -60 -48 -48 -59 -55 -72 -45 -27 23 -104 107 -98 107 3 0 30 -11 59 -24z"/>
</g>
</svg>
