<?xml version="1.0" standalone="no"?>
<!DOCTYPE svg PUBLIC "-//W3C//DTD SVG 20010904//EN"
 "http://www.w3.org/TR/2001/REC-SVG-20010904/DTD/svg10.dtd">
<svg version="1.0" xmlns="http://www.w3.org/2000/svg"
 width="1588.000000pt" height="1588.000000pt" viewBox="0 0 1588.000000 1588.000000"
 preserveAspectRatio="xMidYMid meet">
<metadata>
Created by potrace 1.11, written by Peter Selinger 2001-2013
</metadata>
<g transform="translate(0.000000,1588.000000) scale(0.100000,-0.100000)"
fill="#000000" stroke="none">
<path d="M2780 13029 c-423 -144 -729 -482 -830 -914 -31 -131 -39 -253 -26
-406 l7 -86 -68 -139 c-76 -154 -145 -307 -193 -429 -18 -44 -33 -82 -35 -84
-2 -2 -3 26 -1 61 9 218 -59 472 -181 672 -97 160 -216 286 -367 390 -82 56
-267 149 -278 138 -4 -4 -9 -18 -12 -32 -3 -14 -7 -34 -9 -45 -3 -11 -8 -40
-12 -65 -3 -25 -9 -58 -11 -73 -13 -81 -4 -273 18 -367 5 -25 11 -52 13 -61 9
-45 47 -153 73 -211 124 -274 330 -487 598 -619 l82 -40 -25 -77 c-14 -42 -27
-84 -29 -92 -2 -8 -22 -82 -44 -165 -22 -82 -42 -162 -45 -177 -3 -14 -16 -77
-29 -140 -14 -62 -27 -131 -31 -153 -4 -22 -8 -47 -10 -55 -2 -8 -4 -26 -5
-40 -1 -36 -16 -7 -25 50 -11 70 -53 186 -101 284 -144 290 -418 529 -724 631
-71 24 -213 54 -224 47 -10 -6 -1 -213 13 -294 67 -392 322 -734 676 -911 84
-42 185 -79 297 -107 46 -12 47 -14 43 -44 -20 -129 -29 -341 -29 -627 l-1
-265 -23 50 c-114 247 -325 462 -577 589 -80 41 -184 81 -240 93 -116 26 -188
36 -287 39 l-118 4 0 -27 c1 -102 94 -346 188 -492 172 -266 482 -480 782
-539 30 -6 66 -14 80 -17 14 -2 68 -7 120 -11 52 -3 96 -7 98 -8 4 -3 5 -15
22 -150 6 -49 13 -101 15 -115 2 -14 7 -45 10 -70 14 -105 53 -295 104 -515 9
-36 8 -38 -4 -20 -56 78 -157 179 -250 249 -65 49 -169 116 -180 116 -2 0 -28
11 -57 24 -120 56 -228 88 -348 104 -70 9 -291 9 -350 0 -77 -12 -155 -30
-163 -38 -5 -4 10 -47 32 -95 129 -276 363 -505 638 -625 93 -41 240 -84 330
-95 94 -13 251 -12 343 1 119 17 120 17 120 1 0 -25 135 -390 186 -505 13 -29
24 -54 24 -56 0 -4 99 -216 108 -230 7 -13 -8 -2 -91 60 -131 98 -340 186
-522 218 -79 14 -359 15 -415 2 -14 -4 -40 -9 -59 -12 -88 -15 -321 -105 -321
-125 0 -20 127 -174 204 -246 96 -91 164 -138 293 -205 295 -151 658 -176 973
-66 124 43 119 42 127 22 10 -27 217 -359 233 -374 3 -3 25 -34 49 -70 25 -36
77 -108 117 -161 l72 -96 -56 28 c-162 79 -320 113 -522 114 -245 0 -372 -27
-570 -124 -90 -44 -249 -148 -250 -163 0 -16 116 -115 207 -177 270 -181 640
-250 963 -180 136 30 292 95 416 174 l56 36 71 -77 c104 -112 271 -277 372
-369 147 -133 162 -148 140 -140 -56 20 -175 33 -300 33 -351 0 -654 -126
-903 -378 l-94 -94 27 -22 c15 -12 64 -40 108 -62 204 -102 386 -142 610 -136
312 8 606 132 838 351 l56 53 44 -33 c86 -66 366 -246 499 -322 74 -42 138
-80 142 -83 4 -4 -23 -7 -60 -7 -82 -1 -183 -12 -237 -25 -22 -6 -47 -12 -56
-14 -50 -12 -183 -63 -241 -92 -153 -77 -311 -205 -418 -339 -63 -79 -152
-227 -143 -236 8 -7 126 -45 172 -55 134 -28 178 -32 316 -29 83 1 159 5 170
8 11 2 40 8 64 12 44 7 211 61 266 86 69 31 205 116 270 170 105 86 208 200
280 313 9 13 25 9 125 -35 63 -27 178 -73 255 -101 77 -27 149 -54 160 -59 72
-31 548 -163 655 -182 14 -3 97 -19 185 -35 88 -17 183 -33 210 -37 57 -7 81
-10 185 -25 41 -5 111 -12 155 -15 44 -4 96 -8 116 -10 19 -2 115 -7 212 -10
l177 -6 0 105 0 106 -57 0 c-178 2 -418 13 -538 26 -27 3 -70 7 -95 10 -91 9
-291 37 -350 49 -14 3 -50 9 -80 15 -82 14 -104 19 -225 46 -60 14 -119 28
-129 30 -11 2 -58 15 -106 29 -48 14 -95 27 -106 30 -78 16 -480 160 -626 223
l-46 21 14 48 c43 140 52 385 20 553 -29 159 -102 336 -195 474 -101 150 -271
305 -433 395 l-56 32 -20 -53 c-47 -127 -65 -236 -66 -398 -1 -154 7 -250 24
-296 5 -13 8 -24 5 -24 -8 0 66 -203 97 -264 36 -72 112 -192 141 -224 11 -12
18 -22 15 -22 -6 0 -110 58 -163 91 -16 10 -37 22 -45 26 -52 25 -375 236
-385 252 -3 6 8 41 25 78 107 229 143 450 116 698 -33 303 -189 599 -422 800
l-51 44 -30 -47 c-64 -104 -142 -297 -158 -393 -3 -19 -8 -41 -10 -49 -24 -89
-21 -341 6 -458 6 -26 13 -58 15 -71 8 -41 45 -144 80 -219 18 -39 29 -72 24
-72 -5 0 -10 3 -12 8 -1 4 -37 36 -78 72 -41 35 -156 144 -254 242 l-179 177
43 51 c117 139 228 372 255 535 3 22 10 62 15 90 10 66 11 279 0 335 -5 25
-11 65 -15 89 -18 119 -104 321 -195 456 -72 107 -68 106 -134 33 -144 -159
-267 -404 -300 -598 -32 -186 -27 -377 13 -545 11 -44 18 -81 17 -82 -1 -2
-31 37 -66 85 -36 48 -67 89 -71 92 -9 8 -202 298 -247 372 l-40 67 46 37
c303 243 477 602 476 984 0 108 -6 188 -14 220 -4 14 -13 50 -20 80 -24 111
-95 290 -114 290 -13 0 -112 -73 -179 -133 -92 -81 -212 -237 -270 -352 -109
-217 -159 -485 -133 -707 4 -37 -4 -24 -58 87 -66 136 -162 368 -215 517 l-30
88 62 31 c246 123 465 344 574 579 52 111 69 161 93 260 38 165 45 415 14 522
-3 9 -7 27 -9 40 -3 13 -7 35 -10 50 l-6 26 -60 -24 c-184 -72 -381 -224 -514
-399 -139 -182 -225 -398 -251 -630 -3 -33 -7 -61 -9 -63 -3 -3 -56 225 -79
338 -17 85 -52 298 -61 379 -4 30 -8 62 -10 72 -3 14 10 20 67 33 92 21 235
78 323 129 296 171 512 456 594 782 26 107 31 142 37 264 7 152 17 144 -136
105 -419 -106 -746 -411 -885 -825 l-33 -100 -4 53 c-10 141 3 683 18 758 1 8
3 22 3 30 1 10 12 15 38 15 534 5 1003 332 1182 826 25 68 52 165 58 204 2 17
6 36 8 43 5 13 -24 15 -140 12 -441 -12 -861 -282 -1072 -690 -19 -36 -32 -56
-29 -45 2 11 8 45 11 75 4 30 16 98 27 150 10 52 21 106 23 120 4 26 96 389
115 450 17 59 22 63 66 51 95 -25 302 -34 429 -18 222 27 484 143 654 292 155
135 308 350 355 502 10 30 12 30 -149 58 -79 14 -308 14 -385 0 -320 -55 -608
-226 -795 -470 -32 -41 -60 -75 -62 -75 -2 0 -2 3 0 8 6 11 32 71 52 122 23
60 30 75 58 140 66 150 85 192 127 278 l45 93 87 29 c249 84 447 227 604 437
101 134 175 287 213 438 29 116 32 136 36 280 5 138 -4 237 -20 241 -5 1 -48
-11 -95 -27z"/>
<path d="M12999 13058 c-8 -28 -11 -64 -13 -168 -3 -113 -1 -154 19 -285 10
-60 70 -235 106 -307 120 -241 348 -467 583 -578 38 -18 105 -44 150 -59 l81
-28 47 -94 c76 -153 252 -569 229 -543 -4 5 -28 36 -53 69 -192 254 -505 433
-838 479 -50 7 -251 8 -290 2 -14 -2 -47 -8 -75 -12 -27 -4 -54 -9 -60 -10
-20 -6 -50 -12 -62 -13 -21 -1 -15 -21 36 -126 117 -240 296 -427 541 -562 56
-31 226 -98 271 -107 13 -2 45 -9 70 -15 128 -29 342 -32 469 -6 96 20 97 20
105 -16 11 -48 10 -47 34 -126 37 -123 78 -294 97 -403 3 -14 11 -59 19 -100
20 -99 21 -107 29 -160 7 -44 6 -43 -39 40 -234 430 -685 685 -1169 661 -28
-1 -29 -1 -22 -49 11 -83 66 -243 119 -346 161 -314 436 -541 778 -639 105
-31 138 -36 269 -44 58 -3 108 -10 111 -15 3 -5 7 -30 8 -56 1 -26 4 -69 7
-97 8 -84 10 -628 3 -665 -3 -19 -7 -28 -8 -20 -16 109 -103 300 -197 430
-199 275 -460 440 -806 510 -34 7 -37 5 -43 -19 -5 -27 1 -198 10 -241 2 -13
7 -41 10 -62 6 -38 44 -170 64 -222 71 -181 219 -383 376 -512 143 -118 366
-226 515 -250 46 -8 49 -10 45 -37 -2 -12 -6 -44 -10 -72 -3 -27 -10 -75 -15
-105 -5 -30 -12 -73 -15 -95 -3 -22 -8 -56 -11 -75 -3 -19 -7 -42 -9 -50 -3
-8 -7 -31 -10 -50 -3 -19 -17 -82 -31 -140 -13 -58 -27 -118 -30 -134 -3 -16
-9 -38 -14 -50 -7 -17 -9 -14 -9 17 -1 20 -2 40 -3 45 -3 15 -29 148 -34 172
-7 42 -55 170 -92 244 -132 273 -366 490 -656 610 -22 9 -40 15 -41 14 -10
-15 -32 -128 -40 -208 -54 -517 210 -1015 660 -1246 50 -26 91 -48 93 -49 5
-5 -112 -320 -153 -410 -7 -16 -33 -75 -58 -130 -24 -55 -56 -122 -70 -150
l-26 -50 6 45 c12 109 4 278 -19 380 -5 25 -11 52 -13 60 -10 51 -62 188 -100
262 -83 167 -211 318 -365 434 -100 75 -92 78 -144 -60 -70 -182 -95 -329 -89
-514 11 -360 176 -693 462 -930 l59 -49 -31 -54 c-74 -129 -385 -574 -395
-564 -2 1 4 29 14 61 37 127 52 393 29 509 -22 113 -30 145 -55 218 -15 45
-42 114 -61 152 -66 139 -231 352 -263 339 -13 -6 -101 -136 -143 -214 -48
-89 -92 -218 -118 -341 -19 -95 -23 -139 -21 -264 3 -158 18 -252 62 -383 43
-130 130 -286 222 -399 l34 -43 -173 -173 c-96 -95 -203 -197 -238 -227 -35
-30 -69 -59 -75 -65 -52 -45 -52 -45 -19 23 18 37 46 108 62 157 26 80 35 121
56 245 8 49 9 201 1 285 -14 145 -62 301 -139 448 -28 53 -56 102 -63 108 -19
16 -205 -174 -275 -281 -139 -213 -204 -421 -213 -683 -3 -81 11 -220 29 -292
2 -11 9 -38 14 -60 15 -60 59 -174 91 -232 25 -48 26 -53 11 -66 -42 -37 -415
-274 -471 -300 -8 -4 -38 -20 -67 -36 l-51 -30 53 74 c29 40 71 110 94 154 42
81 104 256 115 321 4 19 10 55 14 80 4 25 7 117 6 205 0 140 -4 173 -28 268
-26 103 -51 177 -61 177 -6 0 -102 -56 -150 -88 -200 -132 -370 -346 -469
-591 -87 -216 -105 -540 -43 -769 l14 -53 -36 -15 c-227 -98 -726 -265 -869
-290 -13 -3 -54 -12 -91 -20 -97 -23 -99 -24 -123 -29 -47 -10 -124 -25 -153
-29 -16 -3 -70 -12 -120 -20 -98 -16 -138 -22 -230 -32 -33 -3 -68 -8 -77 -10
-10 -1 -53 -5 -95 -8 -43 -3 -116 -9 -163 -12 -47 -3 -141 -7 -210 -9 -69 -2
-139 -3 -157 -4 l-31 -1 0 -104 1 -105 131 4 c72 3 167 7 211 10 157 12 181
14 250 20 39 4 77 8 85 10 8 2 36 7 62 10 295 33 710 125 1037 229 134 43 378
131 446 161 196 87 199 88 213 68 228 -322 484 -497 832 -568 88 -18 313 -25
400 -13 109 16 310 70 310 84 0 2 -20 38 -45 79 -173 293 -451 503 -773 584
-101 26 -128 30 -250 38 l-102 6 107 60 c140 77 291 172 426 266 60 42 122 84
138 95 l30 19 39 -41 c177 -184 461 -322 734 -357 62 -8 234 -8 306 0 60 6
188 37 265 63 60 20 230 104 263 130 l24 18 -73 78 c-139 149 -299 253 -514
334 -97 37 -278 66 -410 66 -101 0 -244 -17 -294 -35 -21 -8 -18 -2 19 32 249
230 411 389 518 508 l39 44 74 -45 c294 -178 607 -232 940 -163 201 42 419
155 573 296 31 28 56 54 56 58 0 4 -21 23 -47 43 -204 155 -479 248 -739 251
-87 1 -231 -12 -262 -24 -15 -6 -28 -10 -30 -9 -16 9 -203 -54 -276 -92 -45
-24 -46 -26 51 104 97 128 268 384 333 497 29 50 58 91 65 91 8 0 35 -9 61
-20 184 -79 456 -105 673 -65 319 60 592 227 782 478 32 43 59 84 59 90 0 7
-41 29 -90 50 -245 103 -480 125 -776 71 -53 -10 -213 -68 -279 -102 -87 -45
-134 -74 -209 -131 -34 -26 -54 -36 -48 -25 69 130 219 495 284 689 39 120 35
114 76 104 119 -28 313 -29 467 -4 54 9 202 52 245 71 88 39 179 88 244 132
100 66 260 229 330 336 52 79 136 243 136 265 0 7 -101 30 -205 46 -94 14
-282 6 -385 -17 -25 -5 -54 -11 -64 -14 -94 -19 -266 -94 -369 -160 -112 -72
-189 -141 -316 -284 l-31 -35 15 43 c8 23 12 42 10 42 -2 0 1 15 6 33 5 17 18
75 29 128 31 147 30 142 45 239 4 25 9 54 11 65 2 11 7 40 10 65 3 25 7 56 10
70 3 23 9 70 18 158 2 18 5 35 8 37 2 3 38 7 79 10 183 13 303 40 445 101 152
66 307 172 406 280 24 26 49 53 56 60 18 18 73 92 103 140 84 129 162 331 176
458 l6 49 -129 -6 c-71 -3 -163 -13 -204 -22 -41 -9 -79 -18 -85 -19 -5 -1
-40 -12 -78 -25 -293 -99 -557 -326 -702 -606 -26 -49 -48 -91 -49 -92 0 -1
-1 121 -1 270 0 236 -6 406 -20 537 -2 19 -5 52 -6 74 l-3 38 89 23 c274 70
516 232 690 460 99 130 198 339 221 465 25 138 31 189 33 273 2 78 -1 98 -13
103 -8 3 -52 -4 -98 -16 -46 -12 -88 -22 -95 -24 -7 -1 -16 -5 -19 -9 -4 -4
-14 -7 -23 -7 -9 0 -62 -23 -119 -50 -355 -171 -610 -493 -693 -876 l-12 -59
-18 100 c-21 120 -28 154 -55 280 -26 126 -128 496 -145 527 -8 14 8 26 100
73 130 68 231 142 329 244 77 79 173 215 222 311 32 63 94 236 104 290 3 19 8
46 11 60 25 122 22 312 -7 465 -18 97 -19 98 -81 74 -82 -32 -229 -120 -306
-183 -53 -43 -168 -163 -212 -221 -160 -212 -248 -473 -251 -746 l-1 -100 -30
73 c-55 135 -171 392 -220 488 l-49 94 8 76 c9 91 9 213 -1 277 -14 103 -18
120 -36 191 -52 203 -188 431 -346 582 -127 121 -301 226 -463 279 -61 20
-110 33 -111 29z"/>
<path d="M4753 10053 c-10 -4 -13 -385 -13 -1864 l0 -1860 68 7 c136 15 484 8
612 -11 14 -2 59 -9 100 -14 328 -46 702 -170 1046 -347 115 -59 373 -210 384
-224 3 -4 16 -13 30 -20 36 -19 191 -132 300 -219 176 -140 304 -254 490 -439
l184 -184 25 28 c132 156 372 401 511 523 47 41 87 77 90 81 12 14 203 163
286 223 335 241 696 422 1044 522 66 19 131 37 143 39 12 2 29 7 37 10 19 6
47 11 240 40 134 20 186 23 390 21 129 -1 246 -5 260 -8 14 -3 50 -8 80 -12
30 -4 64 -9 75 -10 11 -2 22 0 25 5 10 16 4 3630 -7 3641 -18 18 -526 13 -586
-6 -7 -2 -36 -6 -66 -10 -30 -3 -64 -8 -75 -10 -12 -2 -34 -7 -51 -9 -16 -3
-52 -10 -80 -16 -27 -6 -60 -13 -72 -16 -57 -11 -272 -77 -360 -110 -411 -153
-826 -401 -1198 -716 -55 -46 -76 -65 -145 -128 -145 -132 -348 -339 -480
-490 -81 -94 -90 -103 -93 -99 -44 65 -487 518 -612 626 -477 411 -891 667
-1365 845 -187 70 -454 142 -605 163 -22 3 -45 8 -52 10 -7 2 -45 7 -85 11
-40 3 -77 9 -81 11 -5 3 -86 7 -180 9 -95 3 -179 6 -187 8 -8 1 -21 1 -27 -1z"/>
<path d="M4749 6016 c-2 -2 -58 -6 -123 -10 -66 -4 -122 -8 -125 -10 -3 -2
-37 -7 -75 -11 -37 -3 -78 -10 -90 -15 -20 -8 -20 -8 6 -19 75 -29 257 -104
285 -116 17 -8 36 -15 41 -15 21 0 20 -16 -1 -17 -35 -1 -180 -14 -202 -18
-11 -2 -46 -6 -78 -10 -31 -4 -59 -11 -62 -14 -2 -4 57 -31 131 -61 75 -30
138 -58 140 -62 3 -4 -10 -8 -28 -9 -18 0 -42 -2 -53 -4 -11 -2 -40 -6 -65 -9
-25 -3 -67 -8 -93 -12 l-49 -7 39 -17 c21 -10 124 -52 228 -94 105 -42 199
-81 210 -86 11 -5 72 -30 135 -55 63 -26 140 -57 170 -70 30 -13 201 -82 380
-155 179 -72 339 -138 355 -145 17 -7 109 -46 205 -85 348 -142 698 -284 860
-350 825 -337 1037 -423 1050 -428 8 -2 -46 57 -120 132 -120 122 -131 136
-95 121 22 -9 83 -34 135 -54 92 -36 97 -37 130 -23 19 8 44 18 55 23 11 4 53
22 94 38 40 17 74 31 75 31 1 0 -56 -59 -127 -130 -72 -72 -128 -133 -125
-135 3 -3 31 7 64 21 32 14 104 44 159 65 55 22 109 44 120 49 11 5 148 62
305 125 157 64 404 165 550 225 146 60 317 129 380 155 469 191 709 288 735
300 17 7 176 72 355 145 179 73 339 138 355 145 17 7 104 43 195 80 91 37 179
73 195 80 17 7 72 29 123 50 51 21 91 39 90 41 -4 3 -174 26 -278 37 -16 1 27
22 124 62 81 33 149 62 151 65 2 3 -8 7 -23 8 -15 1 -52 6 -82 12 -61 10 -152
19 -217 22 -23 1 -40 4 -38 8 2 3 85 39 185 80 200 82 198 79 60 96 -30 3 -64
8 -74 10 -150 28 -655 21 -826 -11 -14 -2 -47 -7 -75 -11 -27 -3 -52 -8 -55
-9 -3 -2 -26 -6 -50 -10 -88 -13 -319 -75 -466 -126 -518 -179 -1012 -473
-1494 -888 -145 -125 -470 -438 -470 -452 0 -7 263 96 311 121 10 6 19 9 19 8
0 -2 -76 -78 -168 -170 l-169 -167 -172 169 -172 168 158 -65 c87 -36 165 -67
173 -70 25 -10 -206 224 -365 368 -33 30 -62 57 -65 60 -3 3 -59 50 -125 104
-152 125 -347 271 -426 320 -9 5 -50 32 -90 59 -101 67 -322 191 -449 253
-291 141 -582 242 -875 302 -132 27 -204 38 -380 56 -58 6 -411 15 -416 11z"/>
</g>
</svg>
